#N canvas 160 91 1519 859 12;
#X obj 308 570 ringer;
#X text 397 582 Ring modulation;
#N canvas 0 50 450 250 (subpatch) 0;
#X array original 336000 float 2;
#X coords 0 1 336000 -1 200 140 1 0 0;
#X restore 1083 63 graph;
#N canvas 0 -844 1366 725 original 0;
#X obj 189 128 openpanel;
#X obj 189 100 bng 15 250 50 0 empty open-file empty 17 7 0 10 -262144
-1 -1;
#X obj 189 205 soundfiler;
#X floatatom 189 240 12 0 0 0 - - -;
#X text 285 243 Soundfile size;
#X obj 189 306 expr 44100/ $f1;
#X text 304 306 soundfile size divided by samplerate;
#X obj 213 272 s sampleSize;
#X floatatom 197 341 12 0 0 0 - - -;
#X obj 189 479 phasor~;
#X obj 190 538 *~;
#X obj 243 507 r sampleSize;
#X obj 189 573 tabread4~ original;
#X msg 189 160 read -resize \$1 original;
#X obj 808 481 hsl 128 15 -1 1 0 0 empty phasorRate empty -2 -8 0 10
-262144 -1 -1 0 1;
#X floatatom 805 505 5 -1 1 0 - - -;
#X text 20 342 Original playback speed;
#X msg 251 421 0;
#X obj 190 619 outlet~;
#X text 55 35 Controls for your original sample;
#X obj 921 504 bng 20 250 50 0 shut-phasor empty empty 17 7 0 10 -262144
-1 -1;
#X obj 851 504 bng 20 250 50 0 og-speed empty empty 17 7 0 10 -262144
-1 -1;
#X text 796 418 Playback controls;
#X text 945 503 OFF;
#X obj 807 455 bng 20 250 50 0 open-file empty empty 17 7 0 10 -262144
-1 -1;
#X text 835 454 OPEN FILE;
#X text 876 503 RESET;
#X text 939 477 SPEED;
#X obj 251 396 bng 15 250 50 0 empty shut-phasor empty 17 7 0 10 -262144
-1 -1;
#X obj 156 315 bng 15 250 50 0 empty og-speed empty 17 7 0 10 -262144
-1 -1;
#X obj 197 367 s phasorRate;
#X text 269 127 Pick a sample to work with;
#X text 298 339 phasor rate - playback speed;
#X text 289 422 Set phasor to 0;
#X obj 566 629 s~ drysig;
#X connect 0 0 13 0;
#X connect 1 0 0 0;
#X connect 2 0 3 0;
#X connect 3 0 7 0;
#X connect 3 0 5 0;
#X connect 5 0 8 0;
#X connect 5 0 9 0;
#X connect 8 0 30 0;
#X connect 9 0 10 0;
#X connect 10 0 12 0;
#X connect 11 0 10 1;
#X connect 12 0 18 0;
#X connect 12 0 34 0;
#X connect 13 0 2 0;
#X connect 14 0 15 0;
#X connect 15 0 9 0;
#X connect 17 0 9 0;
#X connect 28 0 17 0;
#X connect 29 0 8 0;
#X coords 0 -1 1 1 180 80 2 800 450;
#X restore 41 61 pd original;
#N canvas 279 117 652 437 delay 0;
#X obj 56 216 hip~ 10;
#X obj 56 255 +~;
#X obj 147 170 line~;
#X floatatom 147 114 5 0 10000 0 - - -;
#X obj 98 297 delwrite~ later 5000;
#X obj 55 65 inlet~;
#X obj 56 350 outlet~;
#X floatatom 456 151 5 0 100 1 feedback feedback-set feedback;
#X obj 351 129 r feedback;
#X obj 351 187 pack 0 50;
#X obj 351 159 / 100;
#X obj 351 215 line~;
#X obj 146 235 *~;
#X floatatom 456 128 5 0 10000 1 amount amount-set amount;
#X msg 213 59 0;
#X obj 213 26 bng 15 250 50 0 empty del-off empty 17 7 0 10 -262144
-1 -1;
#X obj 562 146 bng 15 250 50 0 del-off empty empty 17 7 0 10 -262144
-1 -1;
#X obj 330 354 setctl amount;
#X obj 147 81 r amount;
#X obj 338 78 s amount-set;
#X obj 339 105 s feedback-set;
#X obj 330 383 setctl feedback;
#X text 329 327 Control settings;
#X obj 147 142 pack 0 50;
#X obj 147 202 delread4~ later 5000;
#X floatatom 338 54 5 0 0 0 - - -;
#X text 219 140 Amount control;
#X text 47 9 Delay;
#X text 561 127 BP;
#X connect 0 0 1 0;
#X connect 1 0 4 0;
#X connect 1 0 6 0;
#X connect 2 0 24 0;
#X connect 3 0 23 0;
#X connect 5 0 0 0;
#X connect 8 0 10 0;
#X connect 9 0 11 0;
#X connect 10 0 9 0;
#X connect 11 0 12 1;
#X connect 12 0 1 1;
#X connect 14 0 10 0;
#X connect 14 0 25 0;
#X connect 14 0 20 0;
#X connect 15 0 14 0;
#X connect 18 0 3 0;
#X connect 23 0 2 0;
#X connect 24 0 12 0;
#X connect 25 0 19 0;
#X coords 0 -1 1 1 140 75 1 450 100;
#X restore 549 181 pd delay 1;
#N canvas 161 49 1166 587 writing 0;
#X obj 55 46 inlet~;
#X text 111 45 Get output;
#X obj 363 472 writesf~ 2;
#X msg 169 448 stop;
#X msg 189 335 start;
#X obj 169 296 t b b b a;
#X text 18 447 stop streaming audio;
#X text 257 253 create the file;
#X obj 169 511 bng 15 250 50 0 end-done empty empty 17 7 0 10 -262144
-1 -1;
#X text 41 413 stop after 15 sec;
#X text 42 10 Write audio to HD;
#X obj 750 393 bng 25 250 50 0 write-now empty catch -2 35 0 13 -258113
-258113 -1;
#X obj 793 393 bng 25 250 50 0 empty end-done done -2 35 0 13 -128992
-4034 -1;
#X text 739 357 controls;
#X obj 169 136 bng 15 250 50 0 empty write-now empty 17 7 0 10 -262144
-1 -1;
#X msg 169 256 open \$1;
#X floatatom 169 190 5 0 0 0 - - -;
#X obj 169 158 f;
#X obj 246 158 + 1;
#X text 387 220 Incremental file name;
#X obj 169 221 makefilename easter-egg%d.wav;
#X obj 327 395 delread4~ easteregg 15000;
#X obj 169 414 delay 15000;
#X obj 54 86 delwrite~ easteregg 15000;
#X obj 590 151 bng 15 250 50 0 empty empty empty 17 7 0 10 -262144
-1 -1;
#X obj 590 176 t b b;
#X obj 590 212 tgl 15 0 empty empty empty 17 7 0 10 -262144 -1 -1 0
1;
#X obj 590 268 f;
#X floatatom 590 304 5 0 0 0 - - -;
#X obj 668 269 + 1;
#X msg 683 227 0;
#X msg 691 191 0;
#X obj 691 159 sel 100;
#X obj 590 232 metro 150;
#X obj 747 455 hradio 15 1 0 10 empty empty Catching 0 -8 0 10 -1 -4034
-1 0;
#X obj 590 347 / 10;
#X floatatom 789 239 5 0 0 0 - define-time delay-time;
#X obj 840 303 loadbang;
#X msg 840 343 15000;
#X floatatom 212 34 5 0 0 0 - delay-time -;
#X floatatom 176 365 5 0 0 0 - delay-time -;
#X floatatom 327 331 5 0 0 0 - delay-time -;
#X floatatom 686 130 5 0 0 0 - - -;
#X floatatom 686 49 5 0 0 0 - delay-time -;
#X obj 686 100 / 100;
#X text 373 330 playback "x" sec;
#X floatatom 840 407 5 0 0 2 Time_ms - define-time;
#X text 832 239 File lenght ms;
#X text 580 123 Progress bar;
#X msg 747 523 0;
#X obj 747 491 sel 10;
#X text 243 88 Audio goes to delread "x" ms later;
#X obj 327 363 + 1000;
#X obj 686 73 + 1000;
#X obj 176 390 + 1000;
#X obj 212 59 + 1000;
#X connect 0 0 23 0;
#X connect 3 0 2 0;
#X connect 3 0 8 0;
#X connect 4 0 2 0;
#X connect 5 0 22 0;
#X connect 5 1 4 0;
#X connect 5 2 21 0;
#X connect 5 3 2 0;
#X connect 14 0 17 0;
#X connect 14 0 24 0;
#X connect 15 0 5 0;
#X connect 16 0 20 0;
#X connect 17 0 18 0;
#X connect 17 0 16 0;
#X connect 18 0 17 1;
#X connect 20 0 15 0;
#X connect 21 0 2 0;
#X connect 21 0 2 1;
#X connect 22 0 3 0;
#X connect 24 0 25 0;
#X connect 25 0 26 0;
#X connect 25 1 30 0;
#X connect 26 0 33 0;
#X connect 27 0 28 0;
#X connect 27 0 29 0;
#X connect 27 0 32 0;
#X connect 28 0 35 0;
#X connect 29 0 27 1;
#X connect 30 0 27 1;
#X connect 31 0 26 0;
#X connect 32 0 31 0;
#X connect 33 0 27 0;
#X connect 34 0 50 0;
#X connect 35 0 34 0;
#X connect 37 0 38 0;
#X connect 38 0 46 0;
#X connect 39 0 55 0;
#X connect 40 0 54 0;
#X connect 41 0 52 0;
#X connect 42 0 33 1;
#X connect 43 0 53 0;
#X connect 44 0 42 0;
#X connect 49 0 34 0;
#X connect 50 0 49 0;
#X connect 52 0 21 0;
#X connect 53 0 44 0;
#X connect 54 0 22 0;
#X connect 55 0 23 0;
#X coords 0 -1 1 1 170 95 2 740 380;
#X restore 1177 522 pd writing;
#X obj 1177 487 r~ toFiler;
#N canvas 0 50 570 410 noise 0;
#X obj 108 173 noise~;
#X obj 204 153 pack 0 50;
#X obj 204 181 line~;
#X obj 204 54 tgl 15 0 empty noisetg empty 17 7 0 10 -262144 -1 -1
0 1;
#X obj 109 203 *~;
#X obj 90 244 +~;
#X obj 204 119 / 100;
#X floatatom 204 89 5 0 100 0 - - -;
#X text 67 8 Noise generator;
#X obj 91 275 outlet~;
#X obj 311 180 s noiselvl-set;
#X obj 393 354 setctl noiselvl;
#X floatatom 404 282 5 0 100 1 noise_lvl noiselvl-set noiselvl;
#X obj 113 60 r noiselvl;
#X obj 29 187 inlet~;
#X obj 404 256 tgl 20 0 noisetg empty ON/OFF 25 7 0 10 -262144 -1 -1
0 1;
#X floatatom 311 154 5 0 0 0 - - -;
#X obj 311 99 bng 15 250 50 0 empty empty empty 17 7 0 10 -262144 -1
-1;
#X msg 311 128 0;
#X connect 0 0 4 0;
#X connect 1 0 2 0;
#X connect 2 0 4 1;
#X connect 3 0 7 0;
#X connect 3 0 17 0;
#X connect 4 0 5 1;
#X connect 5 0 9 0;
#X connect 6 0 1 0;
#X connect 7 0 6 0;
#X connect 13 0 7 0;
#X connect 14 0 5 0;
#X connect 16 0 10 0;
#X connect 17 0 18 0;
#X connect 18 0 16 0;
#X coords 0 -1 1 1 110 75 1 400 230;
#X restore 535 57 pd noise gen;
#X text 536 30 Noise generator;
#X text 40 16 Here you can pick a sample to work with and change playback
rate. The reset button will set it to original speed.;
#N canvas 0 50 495 308 lpf 0;
#X obj 87 101 mtof;
#X floatatom 87 78 5 0 0 0 - #0-pit -;
#X obj 62 153 lop~;
#X text 139 77 <-- cutoff (pitch units);
#X text 150 124 <-- cutoff (Hertz);
#X floatatom 87 126 8 0 0 0 - - -;
#X text 103 149 low-pass filter;
#X text 32 25 LP FILTER;
#X obj 61 183 outlet~;
#X obj 26 87 inlet~;
#X obj 215 235 hsl 128 15 0 137 0 0 \$0-pit open LPF_cutoff -2 -8 0
10 -262144 -1 -1 12700 1;
#X msg 374 90 137;
#X obj 374 56 loadbang;
#X floatatom 374 124 5 0 0 0 - - open;
#X text 373 144 default open;
#X text 278 205 LP FILTER;
#X connect 0 0 5 0;
#X connect 1 0 0 0;
#X connect 2 0 8 0;
#X connect 5 0 2 1;
#X connect 9 0 2 0;
#X connect 11 0 13 0;
#X connect 12 0 11 0;
#X coords 0 -1 1 1 165 60 2 200 200;
#X restore 307 497 pd lpf;
#N canvas 315 -844 852 454 reverb 0;
#X obj 125 268 freeverb~;
#X msg 193 212 roomsize \$1;
#X msg 125 150 wet \$1;
#X msg 173 150 dry \$1;
#X obj 128 95 hsl 128 15 0 1 0 0 empty dry-wet empty -2 -8 0 10 -262144
-1 -1 0 1;
#N canvas 1 80 450 300 inv 0;
#X obj 154 69 inlet;
#X obj 154 179 outlet;
#X msg 154 124 1;
#X obj 154 97 t b f;
#X obj 154 151 -;
#X connect 0 0 3 0;
#X connect 2 0 4 0;
#X connect 3 0 2 0;
#X connect 3 1 4 1;
#X connect 4 0 1 0;
#X restore 173 123 pd inv;
#X floatatom 231 148 5 0 0 0 - - -;
#X floatatom 132 124 5 0 0 0 - - -;
#X obj 196 187 hsl 128 15 0 1 0 0 empty room empty -2 -8 0 10 -262144
-1 -1 0 1;
#X obj 465 127 hsl 128 15 0 1 0 0 dry-wet empty Dry/Wet -2 -8 0 10
-262144 -1 -1 0 1;
#X obj 465 159 hsl 128 15 0 1 0 0 room empty Room_size -2 -8 0 10 -262144
-1 -1 0 1;
#X obj 51 195 inlet~;
#X obj 126 387 outlet~;
#X text 31 9 Freeverb - reverb external;
#X obj 125 38 loadbang;
#X msg 125 70 0;
#X obj 339 294 line~;
#X floatatom 339 208 5 0 100 0 - vgain -;
#X obj 339 266 pack 0 50;
#X obj 339 325 *~;
#X obj 339 237 / 100;
#X obj 285 341 *~;
#X obj 603 15 env~;
#X obj 603 53 - 100;
#X obj 602 -16 r~ verbgain;
#X obj 604 95 vu 15 120 empty empty -1 -8 0 10 -66577 -1 1 0;
#X obj 284 379 s~ verbgain;
#X obj 569 381 throw~;
#X text 510 91 REVERB;
#X obj 465 191 hsl 128 15 0 127 0 0 vgain empty Gain -2 -8 0 10 -262144
-1 -1 0 1;
#X connect 0 0 12 0;
#X connect 0 0 21 0;
#X connect 1 0 0 0;
#X connect 2 0 0 0;
#X connect 3 0 0 0;
#X connect 4 0 2 0;
#X connect 4 0 5 0;
#X connect 4 0 7 0;
#X connect 5 0 3 0;
#X connect 5 0 6 0;
#X connect 8 0 1 0;
#X connect 11 0 0 0;
#X connect 14 0 15 0;
#X connect 15 0 4 0;
#X connect 16 0 19 0;
#X connect 16 0 19 1;
#X connect 17 0 20 0;
#X connect 18 0 16 0;
#X connect 19 0 21 1;
#X connect 20 0 18 0;
#X connect 21 0 12 0;
#X connect 21 0 26 0;
#X connect 22 0 23 0;
#X connect 23 0 25 0;
#X connect 24 0 22 0;
#X coords 0 -1 1 1 200 150 2 450 80;
#X restore 129 151 pd reverb;
#X text 1071 17 Original soundfile visualization;
#X text 1032 737 Your file will be saved to the same directory as your
patch;
#X text 1242 788 https://n1n4-303.github.io/;
#X text 1245 770 Nina.;
#N canvas 238 71 666 439 slapback 0;
#X obj 56 186 hip~ 10;
#X obj 56 225 +~;
#X obj 181 164 line~;
#X obj 55 65 inlet~;
#X obj 287 393 outlet~;
#X obj 304 181 line~;
#X obj 136 195 *~;
#X obj 181 136 pack 0 50;
#X obj 79 299 delwrite~ slap 5000;
#X obj 286 247 +~;
#X obj 304 153 pack 0 200;
#X floatatom 304 124 5 0 0 0 - slap-amount -;
#X text 47 9 Slapback delay;
#X obj 181 112 tgl 15 0 empty slap-onoff empty 17 7 0 10 -262144 -1
-1 0 1;
#X obj 305 215 delread4~ back;
#X obj 308 321 tgl 20 0 slap-onoff empty ON/OFF 26 10 0 10 -262144
-1 -1 0 1;
#X floatatom 307 347 5 0 0 0 - - slap-amount;
#X obj 137 82 delread~ slap 2000;
#X obj 81 265 delwrite~ back 6000;
#X connect 0 0 1 0;
#X connect 1 0 8 0;
#X connect 1 0 9 0;
#X connect 1 0 18 0;
#X connect 2 0 6 1;
#X connect 3 0 0 0;
#X connect 5 0 14 0;
#X connect 6 0 1 1;
#X connect 7 0 2 0;
#X connect 9 0 4 0;
#X connect 10 0 5 0;
#X connect 11 0 10 0;
#X connect 13 0 7 0;
#X connect 14 0 9 1;
#X connect 17 0 6 0;
#X coords 0 -1 1 1 100 70 2 300 300;
#X restore 727 49 pd slapback;
#X text 547 160 Delay. BP will reset settings to 0;
#X text 730 25 Slapback delay;
#N canvas 221 -765 1127 595 chorus 0;
#X obj 72 163 hip~ 10;
#X obj 71 62 inlet~;
#X obj 301 124 line~;
#X obj 270 334 +~;
#X obj 301 96 pack 0 200;
#X floatatom 301 67 5 0 0 0 - depth -;
#X obj 21 244 delwrite~ ch 5000;
#X obj 259 236 delread4~ ch;
#X obj 260 168 *~;
#X obj 235 122 +~ 1;
#X obj 234 85 osc~;
#X text 55 21 Chorus;
#X floatatom 234 54 5 0 0 0 - speed -;
#X obj 461 114 line~;
#X obj 461 86 pack 0 200;
#X floatatom 461 57 5 0 0 0 - depth -;
#X obj 420 158 *~;
#X obj 395 112 +~ 1;
#X obj 394 75 osc~;
#X floatatom 394 44 5 0 0 0 - speed -;
#X obj 419 242 delread4~ ch;
#X obj 620 112 line~;
#X obj 620 84 pack 0 200;
#X floatatom 620 55 5 0 0 0 - depth -;
#X obj 579 156 *~;
#X obj 554 110 +~ 1;
#X obj 553 73 osc~;
#X floatatom 553 42 5 0 0 0 - speed -;
#X obj 578 240 delread4~ ch;
#X obj 259 208 +~ 0.33;
#X obj 725 350 hsl 128 15 0.05 50 1 1 depth empty DEPTH 50 10 0 10
-1 -258081 -258081 12200 1;
#X obj 725 380 hsl 128 15 0.005 5 1 1 speed empty SPEED 50 10 0 10
-1 -260097 -260097 4100 1;
#X obj 281 556 outlet~;
#X obj 391 558 outlet~;
#X obj 419 198 +~ 0.66;
#X obj 578 196 +~ 1.45;
#X obj 454 435 line~;
#X floatatom 454 349 5 0 100 0 - cgain -;
#X obj 454 407 pack 0 50;
#X obj 454 466 *~;
#X obj 454 378 / 100;
#X obj 390 486 *~;
#X obj 887 212 env~;
#X obj 887 250 - 100;
#X obj 888 315 vu 15 120 empty empty -1 -8 0 10 -66577 -1 1 0;
#X obj 886 181 r~ chgain;
#X obj 433 517 s~ chgain;
#X obj 725 410 hsl 128 15 1 100 1 1 cgain empty GAIN 50 10 0 10 -1
-159808 -159808 11500 1;
#X text 768 316 CHORUS;
#X connect 0 0 3 0;
#X connect 0 0 6 0;
#X connect 1 0 0 0;
#X connect 2 0 8 1;
#X connect 3 0 41 0;
#X connect 4 0 2 0;
#X connect 5 0 4 0;
#X connect 7 0 3 1;
#X connect 8 0 29 0;
#X connect 9 0 8 0;
#X connect 10 0 9 0;
#X connect 12 0 10 0;
#X connect 13 0 16 1;
#X connect 14 0 13 0;
#X connect 15 0 14 0;
#X connect 16 0 34 0;
#X connect 17 0 16 0;
#X connect 18 0 17 0;
#X connect 19 0 18 0;
#X connect 20 0 3 1;
#X connect 21 0 24 1;
#X connect 22 0 21 0;
#X connect 23 0 22 0;
#X connect 24 0 35 0;
#X connect 25 0 24 0;
#X connect 26 0 25 0;
#X connect 27 0 26 0;
#X connect 28 0 3 1;
#X connect 29 0 7 0;
#X connect 34 0 20 0;
#X connect 35 0 28 0;
#X connect 36 0 39 0;
#X connect 36 0 39 1;
#X connect 37 0 40 0;
#X connect 38 0 36 0;
#X connect 39 0 41 1;
#X connect 40 0 38 0;
#X connect 41 0 32 0;
#X connect 41 0 33 0;
#X connect 41 0 46 0;
#X connect 42 0 43 0;
#X connect 43 0 44 0;
#X connect 45 0 42 0;
#X coords 0 -1 1 1 250 150 2 700 300;
#X restore 80 317 pd chorus;
#X text 1030 671 If you found something you like in the last "x" secs
(default time is 15s - you can type the amount in ms) \, click "catch"
to save it to your computer. The done button will blink when it's done.
;
#N canvas 0 50 450 300 fshift 0;
#X obj 119 33 inlet~;
#X obj 41 106 hilbert~;
#X obj 42 149 *~;
#X obj 86 149 *~;
#X obj 113 78 cos~;
#X obj 43 218 outlet~;
#X obj 42 80 inlet~;
#X obj 43 189 -~;
#X obj 165 72 -~ 0.25;
#X obj 165 103 cos~;
#X connect 0 0 4 0;
#X connect 0 0 8 0;
#X connect 1 0 2 0;
#X connect 1 1 3 0;
#X connect 2 0 7 0;
#X connect 3 0 7 1;
#X connect 4 0 2 1;
#X connect 6 0 1 0;
#X connect 7 0 5 0;
#X connect 8 0 9 0;
#X connect 9 0 3 1;
#X restore 812 454 pd fshift;
#X obj 871 409 phasor~;
#X floatatom 871 204 5 0 0 0 - - -;
#X obj 871 235 * 0.01;
#X obj 871 271 osc~ 1;
#X obj 871 323 *~ 1;
#X floatatom 928 293 5 0 0 0 - - -;
#X obj 871 372 +~ 440;
#X text 972 296 Depth;
#X text 931 268 LFO;
#X text 931 409 Freq shift contoller;
#X floatatom 933 342 5 0 0 0 - - -;
#X text 978 340 center freq;
#X obj 1140 315 bp~, f 8;
#X floatatom 1168 277 5 0 0 0 - - -;
#X floatatom 1222 288 5 0 0 0 - - -;
#N canvas 452 159 1039 765 mix 0;
#X obj 212 486 *~;
#X obj 295 430 line~;
#X floatatom 298 308 5 0 300 0 - - -;
#X obj 295 402 pack 0 50;
#X obj 295 461 *~;
#X obj 295 373 / 100;
#X obj 213 428 r~ drysig;
#X obj 298 145 vsl 15 128 0 100 0 0 empty empty empty 0 -9 0 10 -262144
-1 -1 0 1;
#X obj 284 584 +~;
#X obj 368 540 *~;
#X obj 437 454 line~;
#X floatatom 384 308 5 0 300 0 - - -;
#X obj 437 426 pack 0 50;
#X obj 437 485 *~;
#X obj 437 397 / 100;
#X obj 384 145 vsl 15 128 0 100 0 0 empty empty empty 0 -9 0 10 -262144
-1 -1 0 1;
#X obj 367 468 inlet~;
#X obj 538 452 line~;
#X floatatom 482 308 5 0 300 0 - - -;
#X obj 538 424 pack 0 50;
#X obj 535 586 *~;
#X obj 538 395 / 100;
#X obj 396 714 dac~;
#X obj 404 619 *~;
#X obj 482 145 vsl 15 128 0 100 0 0 empty empty empty 0 -9 0 10 -262144
-1 -1 0 1;
#X obj 539 38 env~;
#X obj 539 76 - 100;
#X obj 538 7 r~ lvl;
#X obj 436 689 s~ lvl;
#X obj 540 132 vu 15 120 empty empty -1 -8 0 10 -66577 -1 1 0;
#X text 294 119 DRY;
#X text 378 118 WET;
#X text 467 117 MASTER;
#X text 538 259 METER;
#X text 238 190 MIXER;
#X obj 464 653 s~ toFiler;
#X connect 0 0 8 0;
#X connect 1 0 4 0;
#X connect 1 0 4 1;
#X connect 2 0 5 0;
#X connect 3 0 1 0;
#X connect 4 0 0 1;
#X connect 5 0 3 0;
#X connect 6 0 0 0;
#X connect 7 0 2 0;
#X connect 8 0 23 0;
#X connect 9 0 8 1;
#X connect 10 0 13 0;
#X connect 10 0 13 1;
#X connect 11 0 14 0;
#X connect 12 0 10 0;
#X connect 13 0 9 1;
#X connect 14 0 12 0;
#X connect 15 0 11 0;
#X connect 16 0 9 0;
#X connect 17 0 20 0;
#X connect 17 0 20 1;
#X connect 18 0 21 0;
#X connect 19 0 17 0;
#X connect 20 0 23 1;
#X connect 21 0 19 0;
#X connect 23 0 22 0;
#X connect 23 0 22 1;
#X connect 23 0 28 0;
#X connect 23 0 35 0;
#X connect 24 0 18 0;
#X connect 25 0 26 0;
#X connect 26 0 29 0;
#X connect 27 0 25 0;
#X coords 0 -1 1 1 390 180 2 220 110;
#X restore 500 636 pd mix;
#X connect 0 0 37 0;
#X connect 3 0 11 0;
#X connect 6 0 5 0;
#X connect 10 0 0 0;
#X connect 11 0 19 0;
#X connect 19 0 10 0;
#X connect 22 0 21 1;
#X connect 23 0 24 0;
#X connect 24 0 25 0;
#X connect 25 0 26 0;
#X connect 26 0 28 0;
#X connect 27 0 26 1;
#X connect 28 0 22 0;
#X connect 32 0 28 1;
#X connect 35 0 34 1;
#X connect 36 0 34 2;
