#N canvas 71 97 1119 595 12;
#X floatatom 100 32 5 0 0 0 - - -;
#X floatatom 59 143 5 0 0 0 - - -;
#X floatatom 111 143 5 0 0 0 - - -;
#X floatatom 170 144 5 0 0 0 - - -;
#X floatatom 226 143 5 0 0 0 - - -;
#X floatatom 281 142 5 0 0 0 - - -;
#X floatatom 342 143 5 0 0 0 - - -;
#X floatatom 454 142 5 0 0 0 - - -;
#X floatatom 396 143 5 0 0 0 - - -;
#X obj 59 112 * 1;
#X obj 111 112 * 2;
#X obj 170 112 * 3;
#X obj 226 112 * 4;
#X text 145 32 Fundamental Frequency;
#X obj 281 112 * 5;
#X obj 342 112 * 6;
#X obj 396 112 * 7;
#X obj 454 111 * 8;
#X obj 59 176 osc~;
#X obj 111 175 osc~;
#X obj 170 174 osc~;
#X obj 226 174 osc~;
#X obj 281 174 osc~;
#X obj 342 174 osc~;
#X obj 396 175 osc~;
#X obj 454 174 osc~;
#X obj 336 519 dac~;
#X text 497 109 partials;
#X text 501 145 partial frequency;
#X text 494 267 Overtones;
#X obj 704 72 metro;
#X msg 743 40 tempo \$1 permin;
#X obj 675 39 tgl 15 0 empty empty empty 17 7 0 10 -262144 -1 -1 0
1;
#X floatatom 743 10 5 0 0 0 - - -;
#X obj 704 105 bng 15 250 50 0 empty empty empty 17 7 0 10 -262144
-1 -1;
#X msg 457 390 0.2 300;
#X msg 490 422 0 300, f 6;
#X obj 457 463 vline~;
#X obj 336 485 *~;
#X obj 60 265 *~;
#X obj 110 265 *~;
#X obj 169 265 *~;
#X obj 227 265 *~;
#X obj 281 265 *~;
#X obj 342 265 *~;
#X obj 397 265 *~;
#X obj 455 265 *~;
#N canvas 530 0 820 716 randomizer 0;
#X obj 55 200 random 100;
#X obj 55 228 / 100;
#X floatatom 55 256 5 0 0 0 - - -;
#X obj 167 193 random 100;
#X obj 167 221 / 100;
#X floatatom 167 249 5 0 0 0 - - -;
#X obj 255 193 random 100;
#X obj 255 221 / 100;
#X floatatom 255 249 5 0 0 0 - - -;
#X obj 348 193 random 100;
#X obj 348 221 / 100;
#X floatatom 348 249 5 0 0 0 - - -;
#X obj 439 193 random 100;
#X obj 439 221 / 100;
#X floatatom 439 249 5 0 0 0 - - -;
#X obj 532 193 random 100;
#X obj 532 221 / 100;
#X floatatom 532 249 5 0 0 0 - - -;
#X obj 620 193 random 100;
#X obj 620 221 / 100;
#X floatatom 620 249 5 0 0 0 - - -;
#X obj 713 193 random 100;
#X obj 713 221 / 100;
#X floatatom 713 249 5 0 0 0 - - -;
#X obj 170 70 bng 15 250 50 0 empty empty empty 17 7 0 10 -262144 -1
-1;
#X obj 247 519 pack f f f f f f f f;
#X obj 167 282 t b f;
#X obj 255 290 t b f;
#X obj 348 291 t b f;
#X obj 439 296 t b f;
#X obj 532 290 t b f;
#X obj 620 286 t b f;
#X obj 713 289 t b f;
#X obj 247 566 outlet;
#X obj 170 39 inlet;
#X connect 0 0 1 0;
#X connect 1 0 2 0;
#X connect 2 0 25 0;
#X connect 3 0 4 0;
#X connect 4 0 5 0;
#X connect 5 0 26 0;
#X connect 6 0 7 0;
#X connect 7 0 8 0;
#X connect 8 0 27 0;
#X connect 9 0 10 0;
#X connect 10 0 11 0;
#X connect 11 0 28 0;
#X connect 12 0 13 0;
#X connect 13 0 14 0;
#X connect 14 0 29 0;
#X connect 15 0 16 0;
#X connect 16 0 17 0;
#X connect 17 0 30 0;
#X connect 18 0 19 0;
#X connect 19 0 20 0;
#X connect 20 0 31 0;
#X connect 21 0 22 0;
#X connect 22 0 23 0;
#X connect 23 0 32 0;
#X connect 24 0 0 0;
#X connect 24 0 3 0;
#X connect 24 0 6 0;
#X connect 24 0 9 0;
#X connect 24 0 12 0;
#X connect 24 0 15 0;
#X connect 24 0 18 0;
#X connect 24 0 21 0;
#X connect 25 0 33 0;
#X connect 26 0 25 0;
#X connect 26 1 25 1;
#X connect 27 0 25 0;
#X connect 27 1 25 2;
#X connect 28 0 25 0;
#X connect 28 1 25 3;
#X connect 29 0 25 0;
#X connect 29 1 25 4;
#X connect 30 0 25 0;
#X connect 30 1 25 5;
#X connect 31 0 25 0;
#X connect 31 1 25 6;
#X connect 32 0 25 0;
#X connect 32 1 25 7;
#X connect 34 0 24 0;
#X restore 705 138 pd randomizer;
#X obj 705 171 unpack f f f f f f f f;
#X text 733 104 color randomization cotrolled by tempo;
#X connect 0 0 9 0;
#X connect 0 0 10 0;
#X connect 0 0 11 0;
#X connect 0 0 12 0;
#X connect 0 0 14 0;
#X connect 0 0 15 0;
#X connect 0 0 16 0;
#X connect 0 0 17 0;
#X connect 1 0 18 0;
#X connect 2 0 19 0;
#X connect 3 0 20 0;
#X connect 4 0 21 0;
#X connect 5 0 22 0;
#X connect 6 0 23 0;
#X connect 7 0 25 0;
#X connect 8 0 24 0;
#X connect 9 0 1 0;
#X connect 10 0 2 0;
#X connect 11 0 3 0;
#X connect 12 0 4 0;
#X connect 14 0 5 0;
#X connect 15 0 6 0;
#X connect 16 0 8 0;
#X connect 17 0 7 0;
#X connect 18 0 39 0;
#X connect 19 0 40 0;
#X connect 20 0 41 0;
#X connect 21 0 42 0;
#X connect 22 0 43 0;
#X connect 23 0 44 0;
#X connect 24 0 45 0;
#X connect 25 0 46 0;
#X connect 30 0 34 0;
#X connect 31 0 30 0;
#X connect 32 0 30 0;
#X connect 33 0 31 0;
#X connect 34 0 47 0;
#X connect 35 0 37 0;
#X connect 36 0 37 0;
#X connect 37 0 38 1;
#X connect 38 0 26 0;
#X connect 38 0 26 1;
#X connect 39 0 38 0;
#X connect 40 0 38 0;
#X connect 41 0 38 0;
#X connect 42 0 38 0;
#X connect 43 0 38 0;
#X connect 44 0 38 0;
#X connect 45 0 38 0;
#X connect 46 0 38 0;
#X connect 47 0 48 0;
#X connect 48 0 39 1;
#X connect 48 1 40 1;
#X connect 48 2 41 1;
#X connect 48 3 42 1;
#X connect 48 4 43 1;
#X connect 48 5 44 1;
#X connect 48 6 45 1;
#X connect 48 7 46 1;
